<svg xmlns="http://www.w3.org/2000/svg" width="96.090" height="90.821" viewBox="0 0 96.090 90.821" fill="none">
  <path d="M 12.244 90.821 C 6.472 90.821 2.599 84.894 4.918 79.608 L 9.944 68.148 L 13.174 60.783 C 17.47 50.988 17.698 39.867 13.586 29.994 C 12.344 27.013 11.076 24.021 9.944 21.446 C 8.995 19.288 7.882 16.834 6.751 14.375 C 3.675 7.688 8.521 0 15.882 0 L 46.61 0 C 56.428 0 65.041 1.895 72.448 5.684 C 79.855 9.388 85.625 14.642 89.759 21.446 C 93.979 28.25 96.09 36.173 96.09 45.217 C 96.09 54.002 94.066 61.839 90.018 68.729 C 85.97 75.62 80.199 81.046 72.706 85.007 C 65.299 88.883 56.514 90.821 46.351 90.821 L 12.244 90.821 Z M 22.709 76.868 L 46.351 76.868 C 53.414 76.868 59.443 75.577 64.438 72.993 C 69.433 70.323 73.223 66.619 75.807 61.882 C 78.39 57.145 79.682 51.676 79.682 45.475 C 79.682 41.427 79.036 37.551 77.744 33.848 C 76.453 30.058 74.558 26.699 72.06 23.771 C 69.562 20.757 66.505 18.388 62.888 16.666 C 59.27 14.943 55.136 14.082 50.485 14.082 L 22.709 14.082 L 29.423 29.549 C 33.832 39.709 33.832 51.242 29.423 61.401 L 22.709 76.868 Z" fill="currentColor" fill-rule="nonzero"></path>
</svg>