<svg xmlns="http://www.w3.org/2000/svg" width="32.298" height="66.614" viewBox="0 0 32.298 66.614" fill="none">
  <path d="M 14.485 66.566 C -0.081 65.458 0.098 47.544 0.015 33.573 L 0.013 33.276 C -0.071 19.156 -0.179 1.152 14.485 0.048 C 18.079 -0.223 20.972 0.671 23.294 2.388 C 30.867 7.987 32.371 22.335 32.295 33.573 C 32.197 48.072 29.602 67.716 14.485 66.566 Z" fill="currentColor" fill-rule="nonzero"></path>
  <path d="M 0.015 33.573 L 0.515 33.57 L 0.515 33.57 L 0.015 33.573 Z M 14.485 66.566 L 14.447 67.064 L 14.485 66.566 Z M 32.295 33.573 L 32.795 33.576 L 32.795 33.576 L 32.295 33.573 Z M 14.485 0.048 L 14.448 -0.451 L 14.485 0.048 Z M 0.013 33.276 L 0.513 33.273 L 0.513 33.273 L 0.013 33.276 Z M 23.294 2.388 L 22.997 2.79 L 22.997 2.79 L 23.294 2.388 Z M 0.015 33.573 L -0.485 33.576 C -0.444 40.537 -0.471 48.586 1.337 55.028 C 2.244 58.257 3.622 61.125 5.735 63.26 C 7.859 65.404 10.694 66.779 14.447 67.064 L 14.485 66.566 L 14.523 66.067 C 10.993 65.799 8.389 64.518 6.446 62.556 C 4.494 60.584 3.18 57.892 2.3 54.758 C 0.536 48.474 0.557 40.58 0.515 33.57 L 0.015 33.573 Z M 14.485 66.566 L 14.447 67.064 C 18.347 67.361 21.47 66.314 23.945 64.324 C 26.407 62.344 28.194 59.456 29.488 56.118 C 32.073 49.45 32.746 40.838 32.795 33.576 L 32.295 33.573 L 31.795 33.569 C 31.746 40.807 31.072 49.266 28.556 55.757 C 27.299 58.998 25.597 61.712 23.318 63.545 C 21.052 65.368 18.182 66.345 14.523 66.067 L 14.485 66.566 Z M 14.485 0.048 L 14.448 -0.451 C 10.67 -0.167 7.812 1.212 5.671 3.367 C 3.539 5.512 2.148 8.395 1.237 11.646 C -0.581 18.131 -0.529 26.239 -0.487 33.279 L 0.013 33.276 L 0.513 33.273 C 0.471 26.193 0.427 18.238 2.2 11.916 C 3.084 8.762 4.41 6.055 6.38 4.072 C 8.341 2.099 10.968 0.814 14.523 0.546 L 14.485 0.048 Z M 0.013 33.276 L -0.487 33.279 L -0.485 33.576 L 0.015 33.573 L 0.515 33.57 L 0.513 33.273 L 0.013 33.276 Z M 23.294 2.388 L 23.591 1.986 C 21.166 0.193 18.153 -0.73 14.448 -0.451 L 14.485 0.048 L 14.523 0.546 C 18.005 0.284 20.777 1.149 22.997 2.79 L 23.294 2.388 Z M 32.295 33.573 L 32.795 33.576 C 32.833 27.939 32.476 21.499 31.15 15.754 C 29.828 10.024 27.523 4.893 23.591 1.986 L 23.294 2.388 L 22.997 2.79 C 26.638 5.483 28.871 10.325 30.176 15.978 C 31.476 21.616 31.833 27.969 31.795 33.569 L 32.295 33.573 Z" fill="currentColor" fill-rule="nonzero"></path>
</svg>