<svg xmlns="http://www.w3.org/2000/svg" width="32.298" height="67.725" viewBox="0 0 32.298 67.725" fill="none">
  <path d="M 14.485 0.048 C -0.179 1.171 -0.071 19.475 0.013 33.831 L 0.015 34.133 C 0.098 48.337 -0.081 66.55 14.485 67.676 C 29.602 68.845 32.197 48.874 32.295 34.133 C 32.395 19.204 29.796 -1.123 14.485 0.048 Z" fill="currentColor" fill-rule="nonzero"></path>
  <path d="M 14.485 0.048 L 14.523 0.547 L 14.523 0.547 L 14.485 0.048 Z M 14.485 67.676 L 14.447 68.175 L 14.485 67.676 Z M 32.295 34.133 L 32.795 34.136 L 32.295 34.133 Z M 0.015 34.133 L -0.485 34.136 C -0.444 41.214 -0.471 49.395 1.337 55.942 C 2.243 59.223 3.62 62.137 5.733 64.306 C 7.855 66.486 10.691 67.884 14.447 68.175 L 14.485 67.676 L 14.524 67.178 C 10.996 66.905 8.392 65.604 6.449 63.609 C 4.496 61.603 3.181 58.864 2.301 55.676 C 0.536 49.284 0.557 41.256 0.515 34.13 L 0.015 34.133 Z M 14.485 67.676 L 14.447 68.175 C 18.348 68.477 21.473 67.412 23.948 65.389 C 26.41 63.376 28.196 60.441 29.489 57.049 C 32.073 50.272 32.746 41.519 32.795 34.136 L 32.295 34.133 L 31.795 34.13 C 31.746 41.488 31.072 50.091 28.555 56.693 C 27.298 59.99 25.595 62.751 23.315 64.614 C 21.049 66.468 18.181 67.461 14.524 67.178 L 14.485 67.676 Z M 32.295 34.133 L 32.795 34.136 C 32.845 26.657 32.221 17.767 29.637 10.877 C 28.344 7.429 26.545 4.444 24.059 2.395 C 21.56 0.335 18.398 -0.752 14.447 -0.45 L 14.485 0.048 L 14.523 0.547 C 18.228 0.263 21.132 1.278 23.423 3.166 C 25.727 5.065 27.443 7.876 28.701 11.228 C 31.219 17.941 31.845 26.68 31.795 34.13 L 32.295 34.133 Z M 14.485 0.048 L 14.447 -0.45 C 10.667 -0.161 7.809 1.242 5.668 3.432 C 3.537 5.612 2.147 8.542 1.236 11.844 C -0.581 18.435 -0.529 26.676 -0.487 33.834 L 0.013 33.831 L 0.513 33.828 C 0.471 26.631 0.427 18.541 2.2 12.11 C 3.085 8.902 4.412 6.148 6.383 4.131 C 8.344 2.125 10.971 0.819 14.523 0.547 L 14.485 0.048 Z M 0.013 33.831 L -0.487 33.834 L -0.485 34.136 L 0.015 34.133 L 0.515 34.13 L 0.513 33.828 L 0.013 33.831 Z M 0.013 33.831 L -0.487 33.834 C -0.486 33.935 -0.486 34.035 -0.485 34.136 L 0.015 34.133 L 0.515 34.13 C 0.514 34.03 0.514 33.929 0.513 33.828 L 0.013 33.831 Z" fill="currentColor" fill-rule="nonzero"></path>
</svg>